<svg width="515" height="176" viewBox="0 0 515 176" fill="none" xmlns="http://www.w3.org/2000/svg">
<path d="M198.677 92.1313V21.1392H218.158L219.55 75.0748H240.886V92.1313H198.677Z" fill="#FF208C"/>
<path d="M332.451 91.5186C327.354 91.3643 316.882 91.1482 315.77 91.5186V21.1392L331.525 22.0652L359.327 64.6633L357.937 21.1392H376.009V93.3708H360.254L333.842 51.2357L332.451 91.5186Z" fill="#FF208C"/>
<path d="M451.804 44.8728L435.114 46.2539C412.398 19.0938 381.8 60.064 405.444 73.4139C424.358 84.0938 431.56 73.2605 432.796 66.5088H413.788L415.179 51.7779L456.44 54.54C459.221 97.3516 411.934 101.034 392.463 87.2241C372.992 73.4139 372.528 30.6023 409.152 20.4748C438.452 12.3728 449.795 33.3643 451.804 44.8728Z" fill="#FF208C"/>
<path d="M95.1315 23.4116H76.1965L102.983 95.0235H117.761L142.238 23.4116H125.15L110.834 72.3849L95.1315 23.4116Z" fill="#FF208C"/>
<path d="M55.8378 22.5854L26.5962 94.6702H46.0906L49.3397 84.0424H74.404L78.1172 96.0565L97.6116 94.6702L68.8341 22.5854H55.8378Z" fill="#FF208C"/>
<path d="M152.178 21.5522L122.964 93.637H142.44L145.686 83.0092H170.726L174.435 95.0233L193.911 93.637L165.161 21.5522H152.178Z" fill="#FF208C"/>
<path d="M272.086 19.2803L242.958 91.5677H262.377L265.613 80.91H290.58L294.279 92.9579L313.697 91.5677L285.032 19.2803H272.086Z" fill="#FF208C"/>
<path d="M55.6794 68.7888L61.6964 50.335L69.5648 68.7888H55.6794Z" fill="black"/>
<path d="M152.186 67.4807L158.203 49.0957L166.071 67.4807H152.186Z" fill="black"/>
<path d="M272.663 65.6213L278.68 47.1675L286.549 65.6213H272.663Z" fill="black"/>
<path d="M210.559 103.08V32.0874H229.976L231.363 86.023H252.63V103.08H210.559Z" fill="#FA810F"/>
<path d="M344.264 102.467C339.167 102.313 328.695 102.096 327.583 102.467V32.0874L343.338 33.0134L371.14 75.6116L369.75 32.0874H387.822V104.319H372.067L345.655 62.1839L344.264 102.467Z" fill="#FA810F"/>
<path d="M463.617 55.8211L446.927 57.2021C424.211 30.042 393.613 71.0123 417.256 84.3622C436.171 95.042 443.373 84.2087 444.609 77.4571H425.601L426.992 62.7262L468.253 65.4882C471.034 108.3 423.747 111.983 404.276 98.1724C384.804 84.3622 384.341 41.5505 420.965 31.4231C450.265 23.3211 461.608 44.3126 463.617 55.8211Z" fill="#FA810F"/>
<path d="M107.013 34.3599H88.0784L114.864 105.972H129.643L154.12 34.3599H137.032L122.716 83.3332L107.013 34.3599Z" fill="#FA810F"/>
<path d="M67.6508 33.6025L38.4092 105.687H57.9036L61.1527 95.0594H86.2169L89.9302 107.074L109.425 105.687L80.6471 33.6025H67.6508Z" fill="#FA810F"/>
<path d="M164.019 32.501L134.777 104.586H154.272L157.521 93.9579H182.585L186.298 105.972L205.793 104.586L177.015 32.501H164.019Z" fill="#FA810F"/>
<path d="M283.928 30.2285L254.771 102.516H274.209L277.448 91.8582H302.44L306.142 103.906L325.579 102.516L296.886 30.2285H283.928Z" fill="#FA810F"/>
<path d="M67.4922 79.6682L73.5092 61.2832L81.3775 79.6682H67.4922Z" fill="black"/>
<path d="M162.548 76.5695L168.595 58.1846L176.502 76.5695H162.548Z" fill="black"/>
<path d="M284.476 76.5695L290.493 58.1846L298.361 76.5695H284.476Z" fill="black"/>
<path d="M216.708 115.887V44.895H236.188L237.58 98.8306H258.916V115.887H216.708Z" fill="#BBFF33"/>
<path d="M350.551 115.275C345.454 115.12 334.981 114.904 333.869 115.275V44.895L349.624 45.8211L377.426 88.4192L376.036 44.895H394.108V117.127H378.353L351.941 74.9915L350.551 115.275Z" fill="#BBFF33"/>
<path d="M469.903 68.6975L453.213 70.0786C430.497 42.9185 399.899 83.8888 423.543 97.2386C442.458 107.919 449.659 97.0852 450.895 90.3335H431.888L433.278 75.6026L474.539 78.3647C477.321 121.176 430.033 124.859 410.562 111.049C391.091 97.2386 390.627 54.427 427.252 44.2995C456.551 36.1975 467.894 57.189 469.903 68.6975Z" fill="#BBFF33"/>
<path d="M113.211 47.1675H94.2959L121.054 118.848H135.817L160.268 47.1675H143.199L128.897 96.1879L113.211 47.1675Z" fill="#BBFF33"/>
<path d="M73.8681 46.4102L44.6265 118.495H64.1209L67.37 107.867H92.4342L96.1475 119.881L115.642 118.495L86.8644 46.4102H73.8681Z" fill="#BBFF33"/>
<path d="M170.236 45.377L140.995 117.462H160.489L163.738 106.834H188.802L192.516 118.848L212.01 117.462L183.233 45.377H170.236Z" fill="#BBFF33"/>
<path d="M290.145 43.0361L260.989 115.324H280.426L283.666 104.666H308.657L312.359 116.714L331.797 115.324L303.103 43.0361H290.145Z" fill="#BBFF33"/>
<path d="M227.76 131.656V60.6636H247.209L248.599 114.599H269.9V131.656H227.76Z" fill="#6AB7C8"/>
<path d="M361.535 131.043C356.437 130.889 345.965 130.673 344.853 131.043V60.6636L360.608 61.5896L388.41 104.188L387.02 60.6636H405.092V132.895H389.337L362.925 90.7601L361.535 131.043Z" fill="#6AB7C8"/>
<path d="M480.818 84.3968L464.128 85.7778C441.412 58.6177 410.814 99.588 434.458 112.938C453.373 123.618 460.574 112.784 461.81 106.033H442.802L444.193 91.3019L485.454 94.0639C488.235 136.876 440.948 140.558 421.477 126.748C402.006 112.938 401.542 70.1262 438.166 59.9987C467.466 51.8968 478.809 72.8883 480.818 84.3968Z" fill="#6AB7C8"/>
<path d="M124.215 63.0049H105.28L132.066 134.548H146.844L171.321 63.0049H154.234L139.917 111.931L124.215 63.0049Z" fill="#6AB7C8"/>
<path d="M84.8926 62.1094L55.6794 134.194H75.1549L78.4008 123.566H103.441L107.15 135.58L126.626 134.194L97.8763 62.1094H84.8926Z" fill="#6AB7C8"/>
<path d="M181.22 61.0767L151.979 133.161H171.473L174.722 122.534H199.786L203.5 134.548L222.994 133.161L194.216 61.0767H181.22Z" fill="#6AB7C8"/>
<path d="M301.198 58.8042L272.042 131.092H291.479L294.719 120.434H319.71L323.412 132.482L342.85 131.092L314.156 58.8042H301.198Z" fill="#6AB7C8"/>
</svg>
