<svg width="314" height="314" viewBox="0 0 314 314" fill="none" xmlns="http://www.w3.org/2000/svg">
<circle cx="157" cy="157" r="157" fill="#BBFF33"/>
<path d="M92.3261 80.7854L81.976 164.086L94.3962 162.011L103.563 105.983L112.435 155.489L128.108 152.525L110.956 71.8921L92.3261 80.7854Z" fill="white" stroke="#FB0E7D" stroke-width="7"/>
<path d="M158.532 146.589L166.752 57.9492H192.245L210.876 142.735L192.245 146.589L183.373 98.8599L174.502 144.81L158.532 146.589Z" fill="white" stroke="#FB0E7D" stroke-width="7"/>
<path d="M98.4031 98.1745C99.8824 92.9874 103.699 85.4289 107.131 96.6925" stroke="#FB0E7D" stroke-width="5"/>
<path d="M175.616 86.1583C177.638 80.5693 182.568 72.7447 186.117 86.1583" stroke="#FB0E7D" stroke-width="5"/>
<path d="M239.855 49.4722L202.788 53.7678L238.317 194.822L239.855 49.4722Z" fill="white" stroke="#FB0E7D" stroke-width="7"/>
<path d="M242.147 218.753C237.537 221.125 237.468 211.54 238.009 206.451C238.117 205.266 240.226 202.301 242.147 205.266C244.068 208.23 247.171 215.937 242.147 218.753Z" fill="white" stroke="#FB0E7D" stroke-width="7"/>
<path d="M184.726 180.105C184.017 146.074 200.3 150.313 208.531 156.687C182.952 162.763 199.216 204.413 203.504 215.826C206.934 224.956 211.537 222.1 213.41 219.531L212.375 198.188V189.888L203.504 191.37C203.74 185.322 210.206 183.415 213.41 183.218C226.865 188.554 234.849 238.652 211.34 235.984C192.533 233.849 185.761 197.842 184.726 180.105Z" fill="white" stroke="#FB0E7D" stroke-width="7"/>
<path d="M134.716 164.32L148.617 242.437L159.855 241.696L161.334 227.466L169.171 240.806L189.874 242.437L164.587 155.723H162.369L168.284 219.61L138.117 163.579L134.716 164.32Z" fill="white" stroke="#FB0E7D" stroke-width="7"/>
<path d="M73.4057 158.208L60.689 161.172L69.5611 268.483L129.596 257.515L125.16 231.725L83.165 240.914L73.4057 158.208Z" fill="white" stroke="#FB0E7D" stroke-width="7"/>
<path d="M116.719 173.826C100.395 162.205 92.9124 178.026 91.1379 186.721V188.5C107.463 179.607 113.91 185.98 115.093 190.279C99.0046 192.413 101.39 214.193 104.594 224.815L113.318 223.037V220.813C110.479 203.026 122.979 203.916 129.584 206.584C126.508 182.393 118.494 175.089 116.719 173.826Z" fill="white"/>
<path d="M113.318 223.037V220.813C110.479 203.026 122.979 203.916 129.584 206.584C126.508 182.393 118.494 175.089 116.719 173.826C100.395 162.205 92.9124 178.026 91.1379 186.721V188.5C107.463 179.607 113.91 185.98 115.093 190.279C99.0046 192.413 101.39 214.193 104.594 224.815L113.318 223.037ZM113.318 223.037L133.724 219.628" stroke="#FB0E7D" stroke-width="7"/>
<path d="M129.114 72.2269L120.242 75.7839L140.648 148.406H150.112L152.774 63.6309L143.606 65.7058L140.648 112.54L129.114 72.2269Z" fill="white" stroke="#FB0E7D" stroke-width="7"/>
</svg>
