<svg width="384" height="231" viewBox="0 0 384 231" fill="none" xmlns="http://www.w3.org/2000/svg">
<path d="M178.738 140.076C153.63 121.726 147.703 70.3296 147.878 46.9249L163.444 42.2342C160.41 56.4059 170.233 95.8027 175.524 113.73C174.964 88.7419 174.462 39.0094 176.933 39.9804C179.403 40.9515 189.134 37.99 193.69 36.3878C177.005 92.7974 185.317 127.829 191.559 138.294L178.738 140.076Z" fill="#6AB7C8" stroke="#FB0E7D" stroke-width="10"/>
<path d="M107.499 53.7035C117.737 95.9619 92.8256 141.263 79.0903 158.632L76.2308 163.095L124.374 156.756C117.102 151.676 123.079 121.124 128.27 128.654C132.422 134.678 133.735 150.285 133.872 157.336L161.607 151.814C133.518 138.971 133.878 73.347 137.57 42.1406L107.499 53.7035Z" fill="#6AB7C8" stroke="#FB0E7D" stroke-width="10"/>
<path d="M76.7365 70.522L31.2258 75.4512C55.8075 116.4 53.4969 180.228 49.2689 207.024C66.4669 194.101 122.828 195.244 149.121 198.218C127.261 183.529 133.486 173.464 134.445 162.907C117.768 182.847 96.2993 180.613 86.419 176.415C58.9134 169.6 68.5031 87.9983 76.7365 70.522Z" fill="#6AB7C8" stroke="#FB0E7D" stroke-width="10"/>
<path d="M285.408 120.811C253.399 76.944 290.781 59.842 313.474 56.7744L318.027 25.2054C308.076 17.0648 253.865 18.21 237.091 66.498C215.236 129.412 264.978 166.821 320.985 157.396C365.79 149.855 355.747 106.609 345.124 85.9287C337.567 92.0426 319.235 92.2258 311.013 91.5531L314.325 107.678C318.903 105.903 328.494 103.406 330.231 107.621C331.968 111.837 330.521 115.515 329.58 116.827C311.542 141.616 292.616 129.811 285.408 120.811Z" fill="#6AB7C8"/>
<path d="M318.467 22.1503L318.027 25.2054M318.027 25.2054L313.474 56.7744C290.781 59.842 253.399 76.944 285.408 120.811C292.616 129.811 311.542 141.616 329.58 116.827C330.521 115.515 331.968 111.837 330.231 107.621C328.494 103.406 318.903 105.903 314.325 107.678L311.013 91.5531C319.235 92.2258 337.567 92.0426 345.124 85.9287C355.746 106.609 365.79 149.855 320.985 157.396C264.978 166.821 215.236 129.412 237.091 66.498C253.865 18.21 308.076 17.0648 318.027 25.2054Z" stroke="#FB0E7D" stroke-width="10"/>
<path d="M117.236 97.7687C119.335 88.6289 124.558 75.9724 128.655 98.4652" stroke="#FB0E7D" stroke-width="10"/>
<path d="M186.688 95.161C200.284 124.77 198.184 168.154 195.435 186.145C199.166 183.495 221.29 181.384 231.886 180.66C219.721 173.751 218.283 155.333 219.084 146.988C228.903 151.287 239.269 171.688 243.225 181.351C245.056 176.94 265.542 172.948 275.556 171.503C245.011 145.383 243.08 93.9752 245.933 71.5365L215.746 77.9181C233.999 91.7768 231.171 122.2 227.476 135.679C212.299 135.576 206.767 100.497 205.898 82.9707L186.688 95.161Z" fill="#6AB7C8" stroke="#FB0E7D" stroke-width="10"/>
<path d="M161.625 153.094C163.997 162.423 159.109 185.535 156.369 195.925C163.826 196.637 177.716 197.751 173.622 196.504C169.528 195.257 171.245 184.555 172.615 179.36C179.438 181.439 183.082 190.656 184.051 195.004L196.839 192.196C188.604 190.81 181.589 162.242 179.111 148.132L161.625 153.094Z" fill="#6AB7C8" stroke="#FB0E7D" stroke-width="10"/>
<path d="M203.945 37.1894C205.17 45.6222 199.088 65.7171 195.894 74.7104C202.15 75.8942 213.821 77.91 210.458 76.5024C207.096 75.0948 209.449 65.7496 211.046 61.2529C216.651 63.5989 218.963 72.0274 219.418 75.9484L230.485 74.4114C223.627 72.5737 220.086 46.7673 219.173 34.0938L203.945 37.1894Z" fill="#6AB7C8" stroke="#FB0E7D" stroke-width="10"/>
<path d="M210.287 56.4634C210.309 51.6668 211.434 44.7954 215.757 55.6823" stroke="#FB0E7D" stroke-width="10"/>
<path d="M170.059 173.306C171.36 167.371 174.567 159.146 176.985 173.729" stroke="#FB0E7D" stroke-width="10"/>
<path d="M178.738 140.076C153.63 121.726 147.703 70.3296 147.878 46.9249L163.444 42.2342C160.41 56.4059 170.233 95.8027 175.524 113.73C174.964 88.7419 174.462 39.0094 176.933 39.9804C179.403 40.9515 189.134 37.99 193.69 36.3878C177.005 92.7974 185.317 127.829 191.559 138.294L178.738 140.076Z" fill="#6AB7C8" stroke="#FB0E7D" stroke-width="3"/>
<path d="M107.499 53.7035C117.737 95.9619 92.8256 141.263 79.0903 158.632L76.2308 163.095L124.374 156.756C117.102 151.676 123.079 121.124 128.27 128.654C132.422 134.678 133.735 150.285 133.872 157.336L161.607 151.814C133.518 138.971 133.878 73.347 137.57 42.1406L107.499 53.7035Z" fill="#6AB7C8" stroke="#FB0E7D" stroke-width="3"/>
<path d="M76.7365 70.522L31.2258 75.4512C55.8075 116.4 53.4969 180.228 49.2689 207.024C66.4669 194.101 122.828 195.244 149.121 198.218C127.261 183.529 133.486 173.464 134.445 162.907C117.768 182.847 96.2993 180.613 86.419 176.415C58.9134 169.6 68.5031 87.9983 76.7365 70.522Z" fill="#6AB7C8" stroke="#FB0E7D" stroke-width="3"/>
<path d="M285.408 120.811C253.399 76.944 290.781 59.842 313.474 56.7744L318.027 25.2054C308.076 17.0648 253.865 18.21 237.091 66.498C215.236 129.412 264.978 166.821 320.985 157.396C365.79 149.855 355.747 106.609 345.124 85.9287C337.567 92.0426 319.235 92.2258 311.013 91.5531L314.325 107.678C318.903 105.903 328.494 103.406 330.231 107.621C331.968 111.837 330.521 115.515 329.58 116.827C311.542 141.616 292.616 129.811 285.408 120.811Z" fill="#6AB7C8"/>
<path d="M318.467 22.1503L318.027 25.2054M318.027 25.2054L313.474 56.7744C290.781 59.842 253.399 76.944 285.408 120.811C292.616 129.811 311.542 141.616 329.58 116.827C330.521 115.515 331.968 111.837 330.231 107.621C328.494 103.406 318.903 105.903 314.325 107.678L311.013 91.5531C319.235 92.2258 337.567 92.0426 345.124 85.9287C355.746 106.609 365.79 149.855 320.985 157.396C264.978 166.821 215.236 129.412 237.091 66.498C253.865 18.21 308.076 17.0648 318.027 25.2054Z" stroke="#FB0E7D" stroke-width="3"/>
<path d="M117.236 97.7687C119.335 88.6289 124.558 75.9724 128.655 98.4652" stroke="#FB0E7D" stroke-width="2"/>
<path d="M186.688 95.161C200.284 124.77 198.184 168.154 195.435 186.145C199.166 183.495 221.29 181.384 231.886 180.66C219.721 173.751 218.283 155.333 219.084 146.988C228.903 151.287 239.269 171.688 243.225 181.351C245.056 176.94 265.542 172.948 275.556 171.503C245.011 145.383 243.08 93.9752 245.933 71.5365L215.746 77.9181C233.999 91.7768 231.171 122.2 227.476 135.679C212.299 135.576 206.767 100.497 205.898 82.9707L186.688 95.161Z" fill="#6AB7C8" stroke="#FB0E7D" stroke-width="3"/>
<path d="M161.625 153.094C163.997 162.423 159.109 185.535 156.369 195.925C163.826 196.637 177.716 197.751 173.622 196.504C169.528 195.257 171.245 184.555 172.615 179.36C179.438 181.439 183.082 190.656 184.051 195.004L196.839 192.196C188.604 190.81 181.589 162.242 179.111 148.132L161.625 153.094Z" fill="#6AB7C8" stroke="#FB0E7D" stroke-width="3"/>
<path d="M203.945 37.1894C205.17 45.6222 199.088 65.7171 195.894 74.7104C202.15 75.8942 213.821 77.91 210.458 76.5024C207.096 75.0948 209.449 65.7496 211.046 61.2529C216.651 63.5989 218.963 72.0274 219.418 75.9484L230.485 74.4114C223.627 72.5737 220.086 46.7673 219.173 34.0938L203.945 37.1894Z" fill="#6AB7C8" stroke="#FB0E7D" stroke-width="3"/>
<path d="M170.059 173.306C171.36 167.371 174.567 159.146 176.985 173.729" stroke="#FB0E7D" stroke-width="2"/>
<path d="M208.807 53.5491C210.108 47.6137 213.314 39.3886 215.732 53.9715" stroke="#FB0E7D" stroke-width="2"/>
</svg>
