<svg width="70" height="71" viewBox="0 0 70 71" fill="none" xmlns="http://www.w3.org/2000/svg">
<path d="M61.3966 41.1822L49.2329 43.6217C42.3894 43.6885 71.3896 55.6802 55.3896 65.1802C51.0728 67.7434 41.2595 60.7255 34.8797 52.3738C34.9602 50.1705 23.8906 71.8024 16.3649 67.4069C11.0411 64.2974 0.396777 50.8759 15.963 43.6885C20.2332 39.4891 -9.10931 33.1799 7.89069 20.1799C12.8907 16.3563 29.4158 28.7679 27.3907 25.8379C23.297 12.5 38.4839 -7.78808 47.1636 8.68236C48.7914 13.1102 48.7642 19.0827 44.9932 27.6924C44.9089 27.8848 44.8227 28.0785 44.7347 28.2736L44.2736 28.4259C55.6401 24.7285 76.5827 31.6445 61.3966 41.1822Z" fill="#6AB7C8"/>
<path d="M47.164 25.8397C47.4546 25.7377 43.8313 28.5735 44.132 28.4727M44.132 28.4727C55.4649 24.6709 76.646 31.6048 61.3966 41.1822L49.2329 43.6217C42.3894 43.6885 71.3896 55.6802 55.3896 65.1802C51.0728 67.7434 41.2595 60.7255 34.8797 52.3738C34.9601 50.1705 23.8906 71.8024 16.3649 67.4069C11.0411 64.2974 0.396777 50.8759 15.963 43.6885C20.2332 39.4891 -9.10931 33.1799 7.89069 20.1799C12.8907 16.3563 29.4158 28.7679 27.3907 25.8379C23.297 12.5 38.4839 -7.78808 47.1636 8.68236C48.8277 13.2092 48.7622 19.3504 44.7347 28.2736L44.132 28.4727Z" stroke="white" stroke-width="5"/>
</svg>
