<svg width="1135" height="215" viewBox="0 0 1135 215" fill="none" xmlns="http://www.w3.org/2000/svg">
<path d="M66.3968 47.1822L54.2331 49.6217C47.3896 49.6885 76.3898 61.6802 60.3898 71.1802C56.073 73.7434 46.2597 66.7255 39.8799 58.3738C39.9603 56.1705 28.8908 77.8024 21.365 73.4069C16.0413 70.2974 5.39696 56.8759 20.9632 49.6885C25.2333 45.4891 -4.10913 39.1799 12.8909 26.1799C17.8909 22.3563 34.4159 34.7679 32.3909 31.8379C28.2972 18.5 43.4841 -1.78808 52.1638 14.6824C53.7916 19.1102 53.7644 25.0827 49.9933 33.6924C49.9091 33.8848 49.8229 34.0785 49.7349 34.2736L49.2738 34.4259C60.6403 30.7285 81.5829 37.6445 66.3968 47.1822Z" fill="#FB0E7D"/>
<path d="M52.1642 31.8397C52.4548 31.7377 48.8315 34.5735 49.1321 34.4727M49.1321 34.4727C60.465 30.6709 81.6462 37.6048 66.3968 47.1822L54.2331 49.6217C47.3896 49.6885 76.3898 61.6802 60.3898 71.1802C56.073 73.7434 46.2597 66.7255 39.8799 58.3738C39.9603 56.1705 28.8908 77.8024 21.365 73.4069C16.0413 70.2974 5.39696 56.8759 20.9632 49.6885C25.2333 45.4891 -4.10913 39.1799 12.8909 26.1799C17.8909 22.3563 34.4159 34.7679 32.3909 31.8379C28.2972 18.5 43.4841 -1.78808 52.1638 14.6824C53.8279 19.2092 53.7623 25.3504 49.7349 34.2736L49.1321 34.4727Z" stroke="white" stroke-width="5"/>
<path d="M441.003 46.0006L428.84 48.44C421.996 48.5068 450.996 60.4986 434.996 69.9986C430.679 72.5617 420.866 65.5438 414.486 57.1921C414.567 54.9888 403.497 76.6207 395.972 72.2252C390.648 69.1158 380.003 55.6943 395.57 48.5068C399.84 44.3075 370.497 37.9982 387.497 24.9982C392.497 21.1747 409.022 33.5863 406.997 30.6563C402.904 17.3184 418.091 -2.96972 426.77 13.5007C428.398 17.9286 428.371 23.9011 424.6 32.5108C424.516 32.7032 424.429 32.8969 424.341 33.0919L423.88 33.2443C435.247 29.5469 456.189 36.4629 441.003 46.0006Z" fill="#FA810F"/>
<path d="M426.771 30.6581C427.061 30.5561 423.438 33.3919 423.739 33.291M423.739 33.291C435.072 29.4893 456.253 36.4231 441.003 46.0006L428.84 48.44C421.996 48.5068 450.996 60.4986 434.996 69.9986C430.679 72.5617 420.866 65.5438 414.486 57.1921C414.567 54.9888 403.497 76.6207 395.972 72.2252C390.648 69.1158 380.003 55.6943 395.57 48.5068C399.84 44.3075 370.497 37.9982 387.497 24.9982C392.497 21.1747 409.022 33.5863 406.997 30.6563C402.904 17.3184 418.091 -2.96972 426.77 13.5007C428.434 18.0276 428.369 24.1688 424.341 33.0919L423.739 33.291Z" stroke="white" stroke-width="5"/>
<path d="M790.33 45.4122L778.517 49.4402C774.776 51.4145 787.79 70.8257 782.248 73.3371C777.632 75.4292 770.445 66.544 763.986 58.1923C764.068 55.989 748.301 74.9898 745.243 73.2254C739.854 70.1159 729.078 56.6944 744.836 49.507C749.159 45.3076 718.255 26.2938 738.005 24.3093C742.298 23.8779 759.059 35.27 757.009 32.34C757.912 18.6564 764.822 -4.30102 773.609 12.1694C775.257 16.599 777.923 24.8067 774.216 33.5177C774.135 33.7089 774.051 33.9004 773.963 34.0921L773.517 34.2377C785.024 30.5403 805.694 35.8803 790.33 45.4122Z" fill="#BBFF33"/>
<path d="M776.422 31.6582C776.717 31.5562 773.049 34.392 773.353 34.2912M773.353 34.2912C784.826 30.4894 805.768 35.8348 790.33 45.4122L778.517 49.4402C774.776 51.4145 787.79 70.8257 782.248 73.3371C777.632 75.4292 770.445 66.544 763.986 58.1923C764.068 55.989 748.301 74.9898 745.243 73.2254C739.854 70.1159 729.078 56.6944 744.836 49.507C749.159 45.3076 718.255 26.2938 738.005 24.3093C742.298 23.8779 759.059 35.27 757.009 32.34C757.912 18.6564 764.822 -4.30102 773.609 12.1694C775.294 16.6962 778.04 25.1689 773.963 34.0921L773.353 34.2912Z" stroke="white" stroke-width="5"/>
<path d="M82.4 62V26.5H90.6V62H82.4ZM105.59 41.7V62H97.3902V26.5H103.89L120.34 47.4V26.5H128.54V62H121.84L105.59 41.7ZM156.63 36.9C156.53 36.7333 156.18 36.4833 155.58 36.15C154.98 35.7833 154.23 35.4 153.33 35C152.43 34.6 151.446 34.25 150.38 33.95C149.313 33.65 148.246 33.5 147.18 33.5C145.78 33.5 144.696 33.75 143.93 34.25C143.163 34.7167 142.78 35.45 142.78 36.45C142.78 37.25 143.063 37.8833 143.63 38.35C144.23 38.8167 145.08 39.2333 146.18 39.6C147.28 39.9333 148.63 40.3333 150.23 40.8C152.496 41.4 154.463 42.1333 156.13 43C157.796 43.8333 159.063 44.9167 159.93 46.25C160.83 47.5833 161.28 49.35 161.28 51.55C161.28 53.55 160.913 55.25 160.18 56.65C159.446 58.0167 158.446 59.1333 157.18 60C155.946 60.8333 154.53 61.45 152.93 61.85C151.33 62.2167 149.68 62.4 147.98 62.4C146.246 62.4 144.463 62.2333 142.63 61.9C140.83 61.5333 139.096 61.0333 137.43 60.4C135.763 59.7333 134.23 58.9333 132.83 58L136.43 50.85C136.563 51.0167 136.996 51.3333 137.73 51.8C138.463 52.2333 139.363 52.7 140.43 53.2C141.53 53.6667 142.746 54.0833 144.08 54.45C145.413 54.8167 146.763 55 148.13 55C149.596 55 150.68 54.7667 151.38 54.3C152.113 53.8333 152.48 53.1833 152.48 52.35C152.48 51.45 152.096 50.75 151.33 50.25C150.596 49.75 149.58 49.3 148.28 48.9C147.013 48.5 145.546 48.05 143.88 47.55C141.713 46.8833 139.913 46.1333 138.48 45.3C137.08 44.4667 136.03 43.45 135.33 42.25C134.663 41.05 134.33 39.55 134.33 37.75C134.33 35.25 134.913 33.15 136.08 31.45C137.28 29.7167 138.88 28.4167 140.88 27.55C142.88 26.65 145.063 26.2 147.43 26.2C149.096 26.2 150.696 26.4 152.23 26.8C153.796 27.2 155.246 27.7 156.58 28.3C157.946 28.9 159.163 29.5 160.23 30.1L156.63 36.9ZM193.141 33.7H182.341V62H174.141V33.7H163.291V26.5H193.141V33.7ZM202.825 26.5H211.675L223.875 62H215.475L212.725 54.05H201.675L198.975 62H190.575L202.825 26.5ZM211.375 48.4L207.225 34.75L202.975 48.4H211.375ZM241.005 62.25C238.671 62.25 236.471 61.8167 234.405 60.95C232.338 60.05 230.521 58.8 228.955 57.2C227.388 55.5667 226.155 53.65 225.255 51.45C224.388 49.2167 223.955 46.7333 223.955 44C223.955 41.5333 224.405 39.2333 225.305 37.1C226.205 34.9667 227.455 33.0833 229.055 31.45C230.655 29.8167 232.521 28.55 234.655 27.65C236.821 26.7167 239.155 26.25 241.655 26.25C244.921 26.25 247.805 26.95 250.305 28.35C252.805 29.75 254.655 31.6333 255.855 34L249.755 38.6C248.955 37.0333 247.788 35.8 246.255 34.9C244.755 34 243.121 33.55 241.355 33.55C240.021 33.55 238.788 33.8333 237.655 34.4C236.555 34.9333 235.588 35.7 234.755 36.7C233.955 37.6667 233.338 38.8 232.905 40.1C232.471 41.4 232.255 42.8 232.255 44.3C232.255 45.8333 232.488 47.25 232.955 48.55C233.421 49.85 234.071 50.9833 234.905 51.95C235.738 52.8833 236.721 53.6167 237.855 54.15C239.021 54.6833 240.305 54.95 241.705 54.95C243.405 54.95 245.021 54.5333 246.555 53.7C248.121 52.8333 249.555 51.5667 250.855 49.9V58C248.021 60.8333 244.738 62.25 241.005 62.25ZM250.355 49.4H243.455V43.45H257.155V62H250.355V49.4ZM262.576 62V26.5H278.576C280.242 26.5 281.776 26.85 283.176 27.55C284.609 28.2167 285.842 29.1333 286.876 30.3C287.909 31.4333 288.709 32.7167 289.276 34.15C289.876 35.5833 290.176 37.0333 290.176 38.5C290.176 39.9667 289.942 41.3667 289.476 42.7C289.009 44 288.342 45.1833 287.476 46.25C286.609 47.2833 285.576 48.1333 284.376 48.8L292.176 62H283.126L276.326 50.55H270.776V62H262.576ZM270.776 43.4H278.276C278.942 43.4 279.526 43.2 280.026 42.8C280.559 42.3667 280.992 41.7833 281.326 41.05C281.659 40.3167 281.826 39.4667 281.826 38.5C281.826 37.5333 281.626 36.7 281.226 36C280.859 35.2667 280.392 34.7 279.826 34.3C279.259 33.9 278.659 33.7 278.026 33.7H270.776V43.4ZM305.022 26.5H313.872L326.072 62H317.672L314.922 54.05H303.872L301.172 62H292.772L305.022 26.5ZM313.572 48.4L309.422 34.75L305.172 48.4H313.572ZM357.568 62V40.85L349.918 56.25H345.418L337.768 40.85V62H329.568V26.5H338.468L347.668 45.05L356.918 26.5H365.768V62H357.568ZM465.945 62V26.5H474.145V54.8H491.345V62H465.945ZM495.193 62V26.5H503.393V62H495.193ZM518.383 41.7V62H510.183V26.5H516.683L533.133 47.4V26.5H541.333V62H534.633L518.383 41.7ZM548.123 62V26.5H556.323V41.8L569.323 26.5H578.523L565.223 42.35L579.423 62H570.023L560.023 47.75L556.323 51.55V62H548.123ZM607.008 54.8V62H582.058V26.5H606.558V33.7H590.258V40.6H604.258V47.25H590.258V54.8H607.008ZM611.99 62V26.5H625.24C629.14 26.5 632.39 27.3 634.99 28.9C637.623 30.4667 639.607 32.6 640.94 35.3C642.273 37.9667 642.94 40.9333 642.94 44.2C642.94 47.8 642.207 50.9333 640.74 53.6C639.273 56.2667 637.207 58.3333 634.54 59.8C631.907 61.2667 628.807 62 625.24 62H611.99ZM634.59 44.2C634.59 42.1333 634.223 40.3167 633.49 38.75C632.757 37.15 631.69 35.9167 630.29 35.05C628.89 34.15 627.207 33.7 625.24 33.7H620.19V54.8H625.24C627.24 54.8 628.923 54.35 630.29 53.45C631.69 52.5167 632.757 51.25 633.49 49.65C634.223 48.0167 634.59 46.2 634.59 44.2ZM647.781 62V26.5H655.981V62H647.781ZM670.971 41.7V62H662.771V26.5H669.271L685.721 47.4V26.5H693.921V62H687.221L670.971 41.7ZM830.69 54.8V62H805.74V26.5H830.24V33.7H813.94V40.6H827.94V47.25H813.94V54.8H830.69ZM863.671 62V40.85L856.021 56.25H851.521L843.871 40.85V62H835.671V26.5H844.571L853.771 45.05L863.021 26.5H871.871V62H863.671ZM887.639 26.5H896.489L908.689 62H900.289L897.539 54.05H886.489L883.789 62H875.389L887.639 26.5ZM896.189 48.4L892.039 34.75L887.789 48.4H896.189ZM912.185 62V26.5H920.385V62H912.185ZM927.175 62V26.5H935.375V54.8H952.575V62H927.175Z" fill="white"/>
</svg>
