<svg width="80" height="82" viewBox="0 0 80 82" fill="none" xmlns="http://www.w3.org/2000/svg">
<path d="M66.3966 44.1822L54.2329 46.6217C47.3894 46.6885 76.3896 58.6802 60.3896 68.1802C56.0728 70.7434 46.2595 63.7255 39.8797 55.3738C39.9602 53.1705 28.8906 74.8024 21.3649 70.4069C16.0411 67.2974 5.39678 53.8759 20.963 46.6885C25.2332 42.4891 -4.10931 36.1799 12.8907 23.1799C17.8907 19.3563 34.4158 31.7679 32.3907 28.8379C28.297 15.5 43.4839 -4.78808 52.1636 11.6824C53.7914 16.1102 53.7642 22.0827 49.9932 30.6924C49.9089 30.8848 49.8227 31.0785 49.7347 31.2736L49.2736 31.4259C60.6401 27.7285 81.5827 34.6445 66.3966 44.1822Z" fill="#BBFF33"/>
<path d="M52.164 28.8397C52.4546 28.7377 48.8313 31.5735 49.132 31.4727M49.132 31.4727C60.4649 27.6709 81.646 34.6048 66.3966 44.1822L54.2329 46.6217C47.3894 46.6885 76.3896 58.6802 60.3896 68.1802C56.0728 70.7434 46.2595 63.7255 39.8797 55.3738C39.9601 53.1705 28.8906 74.8024 21.3649 70.4069C16.0411 67.2974 5.39678 53.8759 20.963 46.6885C25.2332 42.4891 -4.10931 36.1799 12.8907 23.1799C17.8907 19.3563 34.4158 31.7679 32.3907 28.8379C28.297 15.5 43.4839 -4.78808 52.1636 11.6824C53.8277 16.2092 53.7622 22.3504 49.7347 31.2736L49.132 31.4727Z" stroke="white" stroke-width="5"/>
</svg>
