<svg width="81" height="85" viewBox="0 0 81 85" fill="none" xmlns="http://www.w3.org/2000/svg">
<path d="M67.006 46.0025L54.8423 48.442C47.9988 48.5088 76.999 60.5005 60.999 70.0006C56.6822 72.5637 46.8689 65.5458 40.4891 57.1941C40.5695 54.9908 29.5 76.6227 21.9742 72.2272C16.6505 69.1178 6.00615 55.6962 21.5724 48.5088C25.8425 44.3094 -3.49994 38.0002 13.5001 25.0002C18.5001 21.1767 35.0251 33.5882 33.0001 30.6582C28.9064 17.3203 44.0933 -2.96776 52.773 13.5027C54.4007 17.9306 54.3736 23.9031 50.6025 32.5127C50.5183 32.7051 50.4321 32.8988 50.3441 33.0939L49.883 33.2462C61.2494 29.5488 82.1921 36.4648 67.006 46.0025Z" fill="#FA810F"/>
<path d="M52.7734 30.66C53.064 30.558 49.4407 33.3938 49.7413 33.293M49.7413 33.293C61.0742 29.4912 82.2554 36.4251 67.006 46.0025L54.8423 48.442C47.9988 48.5088 76.999 60.5005 60.999 70.0006C56.6822 72.5637 46.8689 65.5458 40.4891 57.1941C40.5695 54.9908 29.5 76.6227 21.9742 72.2272C16.6505 69.1178 6.00615 55.6962 21.5724 48.5088C25.8425 44.3094 -3.49994 38.0002 13.5001 25.0002C18.5001 21.1767 35.0251 33.5882 33.0001 30.6582C28.9064 17.3203 44.0933 -2.96776 52.773 13.5027C54.4371 18.0295 54.3715 24.1708 50.3441 33.0939L49.7413 33.293Z" stroke="white" stroke-width="5"/>
</svg>
