<svg width="562" height="72" viewBox="0 0 562 72" fill="none" xmlns="http://www.w3.org/2000/svg">
<path d="M315.111 10.3021L307.816 30.9179L289.344 32.515L304.043 41.9297L300.69 62.4093L314.773 46.8743L331.591 61.3186L327.614 40.8962L340.699 31.9088L320.119 29.3218L315.111 10.3021Z" fill="#FA810F" stroke="#6AB7C8" stroke-width="5"/>
<path d="M529.536 10.3021L522.24 30.9179L503.769 32.515L518.467 41.9297L515.114 62.4093L529.198 46.8743L546.015 61.3186L542.038 40.8962L555.124 31.9088L534.544 29.3218L529.536 10.3021Z" fill="#BBFF33" stroke="#FA810F" stroke-width="5"/>
<path d="M458.239 11.2845L450.943 31.9004L432.471 33.4974L447.17 42.9121L443.817 63.3917L457.901 47.8567L474.718 62.301L470.741 41.8786L483.827 32.8912L463.246 30.3042L458.239 11.2845Z" fill="#6AB7C8" stroke="#FB0E7D" stroke-width="5"/>
<path d="M386.408 10.3021L379.113 30.9179L360.641 32.515L375.34 41.9297L371.987 62.4093L386.07 46.8743L402.888 61.3186L398.911 40.8962L411.996 31.9088L391.416 29.3218L386.408 10.3021Z" fill="#FB0E7D" stroke="#BBFF33" stroke-width="5"/>
<path d="M34.2285 9.3197L26.9331 29.9355L8.46149 31.5326L23.1601 40.9473L19.8071 61.4269L33.8905 45.8919L50.7081 60.3361L46.731 39.9138L59.8167 30.9264L39.2363 28.3393L34.2285 9.3197Z" fill="#FA810F" stroke="#6AB7C8" stroke-width="5"/>
<path d="M248.653 9.3197L241.358 29.9355L222.886 31.5326L237.585 40.9473L234.232 61.4269L248.315 45.8919L265.133 60.3361L261.156 39.9138L274.241 30.9264L253.661 28.3393L248.653 9.3197Z" fill="#BBFF33" stroke="#FA810F" stroke-width="5"/>
<path d="M177.356 10.3021L170.06 30.9179L151.589 32.515L166.287 41.9297L162.934 62.4093L177.018 46.8743L193.835 61.3186L189.858 40.8962L202.944 31.9088L182.364 29.3218L177.356 10.3021Z" fill="#6AB7C8" stroke="#FB0E7D" stroke-width="5"/>
<path d="M105.525 9.3197L98.23 29.9355L79.7584 31.5326L94.457 40.9473L91.104 61.4269L105.187 45.8919L122.005 60.3362L118.028 39.9138L131.114 30.9264L110.533 28.3393L105.525 9.3197Z" fill="#FB0E7D" stroke="#BBFF33" stroke-width="5"/>
</svg>
